<?xml version="1.0" encoding="UTF-8"?><svg xmlns="http://www.w3.org/2000/svg" viewBox="0 0 292.3 292.3"><circle cx="146.15" cy="146.15" r="146.15"/><path fill="#fff" d="M66.45,86.33h45.51c.06,1.09.16,2.16.16,3.23,0,50.95.02,101.89,0,152.84,0,19.25-12.1,34.08-31.01,37.59-4.71.87-9.65.52-14.66.74,0,0,0-194.4,0-194.4Z"/><path fill="#fff" d="M191.41,146.84c0-3.96,0-7.92,0-11.87v-7.07c0-1.92.06-3.88-.25-5.77-2.89-17.98-13.25-29.86-30.2-35.99-12.91-4.67-26.11-3.87-39.94-1.06,1.71.65,2.81,1.13,3.95,1.5,14.44,4.75,20.79,13.51,20.79,28.72v63.08c0,15.21-6.36,23.98-20.79,28.72-1.14.37-2.24.85-3.95,1.5,13.83,2.81,27.03,3.6,39.94-1.06,16.95-6.13,27.3-18.01,30.2-35.99.3-1.89.24-3.84.25-5.77v-7.07c0-3.96,0-7.92,0-11.87h0Z"/></svg>